<svg xmlns="http://www.w3.org/2000/svg" version="1.1" xmlns:xlink="http://www.w3.org/1999/xlink" width="512" height="512" x="0" y="0" viewBox="0 0 32 32" style="enable-background:new 0 0 512 512" xml:space="preserve" class=""><g transform="matrix(1.8369701987210297e-16,-1,-1,-1.8369701987210297e-16,31.000160932540886,31.0001609325409)"><g fill="#000" fill-rule="evenodd" clip-rule="evenodd"><path d="M11.06 3.94a1.5 1.5 0 0 1 0 2.12L6.122 11l4.94 4.94a1.5 1.5 0 0 1-2.122 2.12l-6-6a1.5 1.5 0 0 1 0-2.12l6-6a1.5 1.5 0 0 1 2.122 0z" fill="#ffffff" opacity="1" data-original="#000000" class=""></path><path d="M2.5 11A1.5 1.5 0 0 1 4 9.5h17a8.5 8.5 0 1 1 0 17H10a1.5 1.5 0 0 1 0-3h11a5.5 5.5 0 0 0 0-11H4A1.5 1.5 0 0 1 2.5 11z" fill="#ffffff" opacity="1" data-original="#000000" class=""></path></g></g></svg>