<svg xmlns="http://www.w3.org/2000/svg" version="1.1" xmlns:xlink="http://www.w3.org/1999/xlink" width="512" height="512" x="0" y="0" viewBox="0 0 418.879 418.879" style="enable-background:new 0 0 512 512" xml:space="preserve" class=""><g><path d="M188.634 234.066a106.422 106.422 0 0 0 22.767-19.127l23.942 13.826 21.8-37.76-23.894-13.796a105.139 105.139 0 0 0 5.16-29.311l27.183-4.793-7.574-42.938-27.178 4.793a105.7 105.7 0 0 0-14.906-25.744l17.766-21.17-33.4-28.024-17.751 21.152a104.949 104.949 0 0 0-27.954-10.203V13.385h-43.6v27.586a104.962 104.962 0 0 0-27.956 10.203l-17.75-21.152-33.4 28.025 17.764 21.17a105.747 105.747 0 0 0-14.905 25.744L7.57 100.168 0 143.106l27.179 4.793a105.166 105.166 0 0 0 5.161 29.313L8.444 191.007l21.801 37.759 23.943-13.822a106.42 106.42 0 0 0 22.766 19.125l-9.451 25.963 40.972 14.91 9.438-25.928c4.864.688 9.831 1.053 14.882 1.053s10.019-.363 14.883-1.053l9.437 25.93 40.97-14.914-9.451-25.964zm-55.841-34.001c-30.702 0-55.68-24.977-55.68-55.68 0-30.701 24.978-55.68 55.68-55.68s55.68 24.979 55.68 55.68c0 30.703-24.977 55.68-55.68 55.68zM376.041 266.807l-18.795 6.08a75.683 75.683 0 0 0-13.115-16.779l10.504-16.764-26.447-16.57-10.498 16.75a74.99 74.99 0 0 0-20.826-4.471l-2.725-19.559-30.912 4.309 2.725 19.559a75.108 75.108 0 0 0-18.812 9.996l-14.672-13.244-20.912 23.168 14.684 13.259a75.667 75.667 0 0 0-8.02 19.726l-19.744-.714-1.129 31.188 19.743.716a75.277 75.277 0 0 0 6.558 20.271l-15.578 12.143 19.185 24.615 15.609-12.164a76.371 76.371 0 0 0 18.031 11.311l-4.138 19.344 30.522 6.52 4.133-19.314c3.516.01 7.072-.229 10.652-.727a76.217 76.217 0 0 0 10.447-2.215l9.256 17.451 27.574-14.623-9.266-17.471a76.307 76.307 0 0 0 14.252-15.812l18.338 7.436 11.727-28.924-18.303-7.422a75.589 75.589 0 0 0 .764-21.293l18.799-6.084-9.611-29.692zm-78.912 83.199c-21.771 3.031-41.949-12.209-44.98-33.977-3.037-21.769 12.207-41.949 33.977-44.979 21.768-3.036 41.941 12.207 44.98 33.978 3.029 21.767-12.21 41.941-33.977 44.978zM418.146 158.647l.732-24.629-15.586-.463a59.753 59.753 0 0 0-5.285-15.971l12.24-9.67-15.271-19.33-12.238 9.666a59.705 59.705 0 0 0-14.318-8.816l3.164-15.291-24.123-4.996-3.17 15.281a59.165 59.165 0 0 0-16.641 2.412l-7.391-13.727-21.695 11.684 7.391 13.729a59.377 59.377 0 0 0-11.176 12.566l-14.496-5.77-9.111 22.893 14.508 5.779a59.69 59.69 0 0 0-.514 16.799l-14.809 4.898 7.732 23.395 14.809-4.896a59.42 59.42 0 0 0 10.426 13.201l-8.191 13.268 20.963 12.946 8.209-13.292a60.239 60.239 0 0 0 16.453 3.414l2.252 15.453 24.383-3.561-2.246-15.434a59.551 59.551 0 0 0 7.684-3.463 59.632 59.632 0 0 0 7.123-4.51l11.648 10.371 16.387-18.398-11.656-10.383a60.324 60.324 0 0 0 6.203-15.619l15.61.464zm-58.71 13.197c-15.281 8.227-34.404 2.492-42.627-12.783-8.23-15.277-2.494-34.404 12.787-42.627 15.273-8.229 34.395-2.49 42.625 12.787 8.222 15.278 2.49 34.395-12.785 42.623z" fill="#ffffff" opacity="1" data-original="#000000" class=""></path></g></svg>