<svg xmlns="http://www.w3.org/2000/svg" version="1.1" xmlns:xlink="http://www.w3.org/1999/xlink" width="512" height="512" x="0" y="0" viewBox="0 0 512 512" style="enable-background:new 0 0 512 512" xml:space="preserve"><g><path d="M472 232h-33.565c-4.293-32.81-17.267-62.922-36.528-87.964l23.8-23.8c9.357-9.358 9.357-24.585 0-33.943-9.359-9.359-24.585-9.357-33.944 0l-23.799 23.799C342.922 90.832 312.81 77.858 280 73.565V40c0-13.234-10.767-24-24-24s-24 10.766-24 24v33.565c-32.81 4.293-62.922 17.267-87.963 36.528l-23.799-23.799c-9.358-9.357-24.584-9.359-33.944 0-9.357 9.358-9.357 24.585 0 33.943l23.8 23.8C90.832 169.078 77.858 199.19 73.565 232H40c-13.233 0-24 10.766-24 24s10.767 24 24 24h33.565c4.293 32.81 17.267 62.922 36.528 87.964l-23.8 23.8c-9.357 9.358-9.357 24.585.005 33.948 4.678 4.671 10.82 7.005 16.966 7.005s12.293-2.337 16.974-7.01l23.799-23.799c25.041 19.261 55.154 32.235 87.963 36.528V472c0 13.234 10.767 24 24 24s24-10.766 24-24v-33.565c32.81-4.293 62.922-17.267 87.964-36.528l23.804 23.804c4.678 4.671 10.82 7.006 16.966 7.005s12.293-2.337 16.974-7.01c9.357-9.358 9.357-24.585 0-33.943l-23.8-23.8c19.261-25.041 32.235-55.154 36.528-87.964H472c13.233 0 24-10.766 24-24S485.233 232 472 232zM403.077 97.607c3.12-3.121 8.197-3.12 11.315 0 3.12 3.12 3.12 8.196 0 11.316l-22.815 22.816a185.822 185.822 0 0 0-11.316-11.316zM248 40c0-4.411 3.589-8 8-8s8 3.589 8 8v32.184c-2.654-.114-5.319-.184-8-.184s-5.346.07-8 .184zM97.607 108.923c-3.12-3.12-3.12-8.196 0-11.316 3.119-3.119 8.196-3.121 11.315 0l22.816 22.816a185.537 185.537 0 0 0-11.316 11.316zM40 264c-4.411 0-8-3.589-8-8s3.589-8 8-8h32.185c-.115 2.654-.185 5.319-.185 8s.07 5.346.185 8zm68.928 150.389c-3.122 3.118-8.204 3.117-11.32.004-3.12-3.12-3.12-8.196 0-11.316l22.815-22.816a185.822 185.822 0 0 0 11.316 11.316zM264 472c0 4.411-3.589 8-8 8s-8-3.589-8-8v-32.184c2.654.114 5.319.184 8 .184s5.346-.07 8-.184zm150.393-68.923c3.12 3.12 3.12 8.196.005 11.312-3.121 3.118-8.203 3.117-11.32.004l-22.816-22.816a185.537 185.537 0 0 0 11.316-11.316zM256 424c-92.636 0-168-75.364-168-168S163.364 88 256 88s168 75.364 168 168-75.364 168-168 168zm216-160h-32.185c.114-2.654.185-5.319.185-8s-.07-5.346-.185-8H472c4.411 0 8 3.589 8 8s-3.589 8-8 8z" fill="#ffffff" opacity="1" data-original="#000000"></path><path d="M256 128c-70.579 0-128 57.42-128 128s57.421 128 128 128 128-57.42 128-128-57.421-128-128-128zm84.615 201.301-34.088-34.088c6.885-8.851 11.494-19.546 12.956-31.213h48.229c-1.765 24.874-11.683 47.531-27.097 65.301zM144.289 264h48.229c1.462 11.666 6.071 22.361 12.956 31.213l-34.088 34.088c-15.415-17.77-25.333-40.427-27.097-65.301zm27.096-81.301 34.088 34.088c-6.885 8.851-11.494 19.546-12.956 31.213h-48.229c1.765-24.874 11.683-47.531 27.097-65.301zM256 304c-26.468 0-48-21.533-48-48s21.532-48 48-48 48 21.533 48 48-21.532 48-48 48zm39.212-98.527c-8.851-6.885-19.546-11.493-31.212-12.956v-48.229c24.874 1.764 47.531 11.682 65.301 27.096zM248 192.518c-11.666 1.462-22.361 6.071-31.212 12.956L182.7 171.385c17.77-15.414 40.427-25.332 65.301-27.096v48.229zm-31.212 114.009c8.851 6.885 19.546 11.493 31.212 12.956v48.229c-24.874-1.764-47.531-11.682-65.301-27.096zM264 319.482c11.666-1.462 22.361-6.071 31.212-12.956l34.088 34.089c-17.77 15.414-40.427 25.332-65.301 27.096v-48.229zM319.482 248c-1.462-11.666-6.071-22.361-12.956-31.213l34.088-34.088c15.415 17.77 25.333 40.427 27.097 65.301z" fill="#ffffff" opacity="1" data-original="#000000"></path><path d="M256 224c-17.645 0-32 14.355-32 32s14.355 32 32 32 32-14.355 32-32-14.355-32-32-32zm0 48c-8.822 0-16-7.178-16-16s7.178-16 16-16 16 7.178 16 16-7.178 16-16 16zM256.02 112c4.419 0 8-3.582 8-8s-3.581-8-8-8h-.01c-4.418 0-7.995 3.582-7.995 8s3.587 8 8.005 8zM256.02 400h-.01c-4.418 0-7.995 3.582-7.995 8s3.587 8 8.005 8a8 8 0 1 0 0-16zM363.5 156.52c4.419 0 8-3.582 8-8s-3.581-8-8-8h-.01c-4.418 0-7.995 3.582-7.995 8s3.587 8 8.005 8zM148.539 355.48h-.01c-4.418 0-7.995 3.582-7.995 8s3.587 8 8.005 8c4.419 0 8-3.582 8-8s-3.581-8-8-8zM408.02 264c4.419 0 8-3.582 8-8s-3.581-8-8-8h-.01c-4.418 0-7.995 3.582-7.995 8s3.587 8 8.005 8zM104.02 248h-.01c-4.418 0-7.995 3.582-7.995 8s3.587 8 8.005 8a8 8 0 1 0 0-16zM363.5 355.48h-.01c-4.418 0-7.995 3.582-7.995 8s3.587 8 8.005 8c4.419 0 8-3.582 8-8s-3.581-8-8-8zM148.539 156.52c4.419 0 8-3.582 8-8s-3.581-8-8-8h-.01c-4.418 0-7.995 3.582-7.995 8s3.587 8 8.005 8z" fill="#ffffff" opacity="1" data-original="#000000"></path></g></svg>