<svg xmlns="http://www.w3.org/2000/svg" version="1.1" xmlns:xlink="http://www.w3.org/1999/xlink" width="512" height="512" x="0" y="0" viewBox="0 0 512 512" style="enable-background:new 0 0 512 512" xml:space="preserve"><g><path d="M497 241h-36.55c-3.29-45.262-21.337-86.496-49.34-118.895l25.202-25.207c5.86-5.855 5.86-15.351 0-21.21s-15.355-5.86-21.214 0l-25.203 25.203C357.496 72.887 316.262 54.84 271 51.55V15c0-8.285-6.715-15-15-15s-15 6.715-15 15v36.55c-45.262 3.29-86.496 21.333-118.895 49.34L96.902 75.688c-5.859-5.855-15.355-5.855-21.215 0-5.859 5.86-5.859 15.356 0 21.215l25.204 25.203C72.887 154.504 54.84 195.738 51.55 241H15c-8.285 0-15 6.715-15 15s6.715 15 15 15h36.55c3.29 45.262 21.337 86.496 49.34 118.895l-25.203 25.207c-5.859 5.855-5.859 15.351 0 21.21a14.955 14.955 0 0 0 10.606 4.395c3.84 0 7.68-1.465 10.605-4.394l25.207-25.204c32.399 28.008 73.633 46.051 118.895 49.34V497c0 8.285 6.715 15 15 15 8.281 0 15-6.715 15-15v-36.55c45.262-3.29 86.496-21.333 118.895-49.34l25.203 25.203a14.955 14.955 0 0 0 10.605 4.394c3.84 0 7.68-1.465 10.606-4.394 5.859-5.856 5.859-15.356 0-21.211l-25.204-25.207c28.008-32.399 46.051-73.633 49.34-118.895H497c8.285 0 15-6.715 15-15s-6.715-15-15-15zm-135.57 99.215-57.422-57.422A54.569 54.569 0 0 0 308.902 271h81.258c-2.887 26-13.183 49.793-28.73 69.215zm-210.86-168.43 57.422 57.422A54.569 54.569 0 0 0 203.098 241H121.84c2.887-26 13.183-49.793 28.73-69.215zM390.16 241h-81.258a54.569 54.569 0 0 0-4.894-11.793l57.422-57.422C376.977 191.207 387.273 215 390.16 241zm-107.367-33.008A54.569 54.569 0 0 0 271 203.098V121.84c26 2.887 49.793 13.183 69.215 28.73zM241 203.098a54.569 54.569 0 0 0-11.793 4.894l-57.422-57.422C191.207 135.023 215 124.727 241 121.84zM121.84 271h81.258a54.569 54.569 0 0 0 4.894 11.793l-57.422 57.422C135.023 320.793 124.727 297 121.84 271zm107.367 33.008A54.569 54.569 0 0 0 241 308.902v81.258c-26-2.887-49.793-13.183-69.215-28.73zM271 308.902a54.569 54.569 0 0 0 11.793-4.894l57.422 57.422C320.793 376.977 297 387.273 271 390.16zm0 0" fill="#ffffff" opacity="1" data-original="#000000"></path></g></svg>