<svg xmlns="http://www.w3.org/2000/svg" version="1.1" xmlns:xlink="http://www.w3.org/1999/xlink" width="512" height="512" x="0" y="0" viewBox="0 0 512.085 512.085" style="enable-background:new 0 0 512 512" xml:space="preserve"><g><g transform="translate(-1)"><path d="M444.355 465.239a8.775 8.775 0 0 0 13.126-.574 262.18 262.18 0 0 0 55.561-136.704 8.996 8.996 0 0 0-8.898-9.87h-71.609a8.977 8.977 0 0 0-8.757 7.857 172.184 172.184 0 0 1-30.791 75.776 9.198 9.198 0 0 0 .733 11.873zM444.364 138.001l-50.67 50.759a8.827 8.827 0 0 0-.706 11.652 131.421 131.421 0 0 1 4.061 5.65l23.481-9.357a35.73 35.73 0 0 1 13.065-2.472c16.97-.042 31.57 11.995 34.765 28.662s-5.918 33.25-21.7 39.487l-23.393 9.357c.177 1.059.353 2.03.53 3.09a8.924 8.924 0 0 0 8.739 7.768h71.592a8.827 8.827 0 0 0 8.827-9.71 254.735 254.735 0 0 0-55.437-134.268 8.958 8.958 0 0 0-13.154-.618zM284.488 44.207a8.889 8.889 0 0 0-9.711 8.899v71.618a8.907 8.907 0 0 0 7.707 8.757 167.418 167.418 0 0 1 74.399 30.897 8.906 8.906 0 0 0 11.652-.742l50.67-50.697a8.894 8.894 0 0 0-.565-13.136 254.761 254.761 0 0 0-134.152-55.596zM229.598 44.207A254.757 254.757 0 0 0 95.419 99.759a8.89 8.89 0 0 0-.565 13.136l50.67 50.697a8.907 8.907 0 0 0 11.652.742 167.418 167.418 0 0 1 74.399-30.897 8.906 8.906 0 0 0 7.706-8.757V53.106a8.89 8.89 0 0 0-9.683-8.899zM56.603 138.619A255.114 255.114 0 0 0 1.043 272.86a8.9 8.9 0 0 0 8.898 9.71H81.55a8.916 8.916 0 0 0 8.757-7.715 167.557 167.557 0 0 1 30.791-74.443 8.907 8.907 0 0 0-.733-11.652l-50.67-50.706a8.827 8.827 0 0 0-13.092.565zM56.603 464.639a8.775 8.775 0 0 0 13.126.574l50.67-51.615a9.198 9.198 0 0 0 .733-11.873 172.182 172.182 0 0 1-30.826-75.776 8.978 8.978 0 0 0-8.757-7.857H9.985a8.997 8.997 0 0 0-8.943 9.869 262.19 262.19 0 0 0 55.561 136.678z" fill="#ffffff" opacity="1" data-original="#000000"></path><circle cx="257.043" cy="300.163" r="17.655" fill="#ffffff" opacity="1" data-original="#000000"></circle><path d="M186.422 300.163c0 39.003 31.618 70.621 70.621 70.621s70.621-31.618 70.621-70.621-31.618-70.621-70.621-70.621-70.621 31.619-70.621 70.621zm105.931 0c0 19.501-15.809 35.31-35.31 35.31s-35.31-15.809-35.31-35.31 15.809-35.31 35.31-35.31 35.31 15.809 35.31 35.31zM450.014 223.01c-3.624-9.053-13.884-13.473-22.952-9.887l-96.309 38.488a86.563 86.563 0 0 1 13.153 32.839l96.221-38.488a17.656 17.656 0 0 0 9.887-22.952z" fill="#ffffff" opacity="1" data-original="#000000"></path></g></g></svg>